<svg width="32" height="32" viewBox="0 0 32 32" fill="none" xmlns="http://www.w3.org/2000/svg">
<rect width="32" height="32" rx="6" fill="url(#paint0_linear)"/>
<path d="M23.0664 18.3164C22.9336 20.1523 22.2539 21.5977 21.0273 22.6523C19.8086 23.707 18.1992 24.2344 16.1992 24.2344C14.0117 24.2344 12.2891 23.5 11.0312 22.0312C9.78125 20.5547 9.15625 18.5312 9.15625 15.9609V14.918C9.15625 13.2773 9.44531 11.832 10.0234 10.582C10.6016 9.33203 11.4258 8.375 12.4961 7.71094C13.5742 7.03906 14.8242 6.70312 16.2461 6.70312C18.2148 6.70312 19.8008 7.23047 21.0039 8.28516C22.207 9.33984 22.9023 10.8203 23.0898 12.7266H19.5742C19.4883 11.625 19.1797 10.8281 18.6484 10.3359C18.125 9.83594 17.3242 9.58594 16.2461 9.58594C15.0742 9.58594 14.1953 10.0078 13.6094 10.8516C13.0312 11.6875 12.7344 12.9883 12.7188 14.7539V16.043C12.7188 17.8867 12.9961 19.2344 13.5508 20.0859C14.1133 20.9375 14.9961 21.3633 16.1992 21.3633C17.2852 21.3633 18.0938 21.1172 18.625 20.625C19.1641 20.125 19.4727 19.3555 19.5508 18.3164H23.0664Z" fill="white"/>
<defs>
<linearGradient id="paint0_linear" x1="-9.5" y1="37" x2="45" y2="-4.5" gradientUnits="userSpaceOnUse">
<stop offset="0.00567381" stop-color="#D16BA5"/>
<stop offset="0.619792" stop-color="#86A8E7"/>
<stop offset="0.989583" stop-color="#5FFBF1" stop-opacity="0.3"/>
</linearGradient>
</defs>
</svg>
